<?xml version="1.0" encoding="utf-8"?>
<!-- Generator: Adobe Illustrator 22.1.0, SVG Export Plug-In . SVG Version: 6.00 Build 0)  -->
<svg version="1.1" id="Layer_1" xmlns="http://www.w3.org/2000/svg" xmlns:xlink="http://www.w3.org/1999/xlink" x="0px" y="0px"
	 viewBox="0 0 330.3 265.2" style="enable-background:new 0 0 330.3 265.2;" xml:space="preserve">
<style type="text/css">
	.st0{fill:#020202;}
	.st1{fill:#050505;}
	.st2{fill:#F9F9F7;}
	.st3{fill:none;stroke:#FFFFFF;stroke-width:3;stroke-miterlimit:10;}
	.st4{fill:#FFFFFF;}
</style>
<path class="st0" d="M96.5,164c87-37,161-23,161-23s1-12,4.9-18.6c5.1-8.6,24.1-24.4,22.1-64.4l-7-50l-2-1c0,0,4,43,2,45
	c0,0-4,2-8,0s-29-40-29-40l-1,1l24,42c0,0,7,15-35,46c-3.2,2-38,23-71,24"/>
<circle class="st0" cx="276" cy="4.5" r="4.5"/>
<circle class="st0" cx="238" cy="9.5" r="4.5"/>
<path class="st1" d="M0.5,205c0,0,291.3-84,325.7-9c0,0-11.7-26,1.3-40c-6-5-17.4-4.8-33.6-8C293.9,148,186.4,127,0.5,205z"/>
<path class="st2" d="M142.5,921c0,0,22,1,26,30"/>
<path class="st3" d="M236.5,65"/>
<path class="st3" d="M210.5,43"/>
<path class="st4" d="M186.5,56"/>
<path d="M231.9,41C213.5,38,213.5,44,213.5,44c-53,0-63.6,49-63.6,49c-1.3,35,36.2,22.4,36.2,22.4c53.9-23,69-51.4,69-51.4
	S252.7,44.5,231.9,41z M194.5,83c0,0-15,18-29,17c-1,0-13-10-13-11c18,15,40-9,40-9c-6.3-6.3-18-18-18-18s0-2,2-2l21,20L194.5,83z
	 M226.5,66l-15-21h2l14,17l21.4,0.8l3.5,2.2L226.5,66z"/>
<g>
	<path d="M20,253.6l1.3-18.4c0.4-6.2,0.8-10.7,1-13.6c0.2-2.9,0.3-4.3,0.3-4.3c0-0.3,0-0.6,0.1-0.8c0-0.2,0.1-0.4,0.1-0.5
		c0.1-0.1,0.1-0.3,0.2-0.3c0.1-0.1,0.2-0.1,0.4-0.2l9.3-2.2c0.2-0.1,0.5-0.1,0.7-0.1c0.3,0,0.4,0.1,0.5,0.2c0.1,0.2,0.1,0.5,0.1,0.9
		c-0.1,1.1-0.2,2.1-0.3,3.1c-0.1,1-0.1,1.9-0.2,2.8c0,0.9-0.1,1.7-0.1,2.5c0,0.8-0.1,1.6-0.1,2.4c-0.1,0.9-0.2,1.8-0.3,2.6
		c-0.1,0.9-0.2,1.8-0.2,2.7c-0.1,0.9-0.1,1.9-0.2,3c-0.1,1-0.2,2.2-0.3,3.4l-1.2,14.2c0,0.2,0,0.3-0.1,0.5c0,0.2-0.2,0.3-0.4,0.4
		c0,0-0.1,0-0.3,0.1c-0.2,0.1-0.5,0.2-0.8,0.3c-0.3,0.1-0.7,0.2-1.1,0.4s-0.9,0.2-1.4,0.3c-0.8,0.2-1.5,0.4-2.1,0.5
		c-0.6,0.2-1.1,0.3-1.6,0.5c-0.5,0.2-0.9,0.3-1.3,0.4c-0.4,0.1-0.8,0.1-1.2,0.1c-0.3,0-0.5-0.1-0.7-0.2C20.1,254.3,20,254,20,253.6z
		"/>
	<path d="M43.8,253.6c0.1-1.3,0.2-2.6,0.3-3.8c0.1-1.2,0.2-2.4,0.2-3.5l1-12.7c0.1-1,0.2-1.8,0.3-2.6c0.1-0.8,0.1-1.6,0.2-2.3
		c0-0.8,0.1-1.5,0.1-2.3c0-0.8,0.1-1.6,0.1-2.6c-0.6,0-1.2,0-1.9,0c-0.7,0-1.3,0-2.1,0h-5.2c-0.2,0-0.3-0.1-0.4-0.2
		c0-0.2-0.1-0.3-0.1-0.4v-0.2l3-7.8l0-0.1c0-0.1,0.1-0.2,0.2-0.2c0.1-0.1,0.4-0.1,0.8-0.1c2.5-0.1,4.9-0.3,7.2-0.4
		c2.3-0.1,4.6-0.3,6.9-0.4c2.3-0.1,4.5-0.2,6.8-0.3c2.3-0.1,4.6-0.2,7-0.3c0.2,0,0.4,0,0.7,0.1c0.2,0.1,0.4,0.3,0.4,0.6
		c0,0,0,0.1,0,0.1c0,0,0,0.1,0,0.1c-0.3,0.7-0.6,1.4-0.8,2.1c-0.2,0.7-0.5,1.3-0.7,2c-0.2,0.6-0.5,1.3-0.7,2
		c-0.2,0.7-0.5,1.4-0.8,2.1c0,0-0.1,0.1-0.1,0.3c-0.1,0.2-0.1,0.3-0.2,0.5c-0.1,0.2-0.3,0.4-0.4,0.5c-0.2,0.2-0.4,0.3-0.7,0.3
		c-0.1,0-0.2,0-0.3,0c-0.1,0-0.2,0-0.3,0H57c-0.1,0.9-0.2,1.9-0.3,2.9c-0.1,1-0.2,2-0.3,3l-2,21c0,0.2,0,0.3-0.1,0.5
		c0,0.2-0.2,0.3-0.4,0.3l-7.6,2.7c-0.2,0.1-0.5,0.2-0.8,0.3s-0.6,0.2-0.9,0.2c-0.3,0-0.5-0.1-0.7-0.2c-0.2-0.1-0.3-0.4-0.3-0.7
		V253.6z"/>
	<path d="M78.9,250.8c0.2-0.5,0.5-1,0.7-1.6c0.3-0.6,0.5-1.2,0.7-1.9l0.7-1.8c-0.3-0.5-0.6-1-1-1.6c-0.3-0.6-0.6-1.1-0.9-1.7
		s-0.5-1.2-0.7-1.8c-0.2-0.6-0.3-1.2-0.3-1.7c0,0,0.1-0.1,0.4-0.1c0.3,0,0.6,0,1-0.1c0.4,0,0.9,0,1.4,0c0.5,0,0.9,0,1.4,0
		c0.4,0,0.9,0,1.5,0c0.4-1.1,0.8-2.1,1.2-3.1c0.4-1,0.8-1.9,1.2-2.9c0.4-1,0.8-2,1.2-3c0.4-1,0.8-2.1,1.2-3.3
		c0.8-2.2,1.5-4.2,2.2-5.9c0.7-1.7,1.4-3.2,2-4.7c0.1-0.2,0.2-0.3,0.4-0.5c0.2-0.2,0.4-0.3,0.6-0.4c0.2-0.1,0.4-0.2,0.6-0.3
		c0.2-0.1,0.3-0.1,0.4-0.2c0.1,0,0.3-0.1,0.8-0.2c0.5-0.1,1-0.3,1.6-0.5c0.6-0.2,1.2-0.3,1.8-0.4c0.6-0.1,1.1-0.2,1.4-0.2h0.5
		c0.3,0,0.6,0.1,0.8,0.2c0.3,0.1,0.4,0.4,0.5,0.8c0.9,2.2,1.8,4.6,2.8,7.2c1,2.6,1.9,5.5,2.9,8.6c0.5,1.7,1,3.3,1.5,4.8s1,3,1.5,4.4
		c0.5,1.4,1,2.9,1.5,4.3c0.5,1.4,1,2.9,1.5,4.4c0.2,0.6,0.3,1.2,0.5,1.5c0.2,0.4,0.3,0.7,0.5,0.9c0.1,0.2,0.3,0.4,0.3,0.5
		c0.1,0.1,0.1,0.2,0.1,0.3s-0.2,0.2-0.5,0.3l-5.8,1.9c-0.4,0.2-0.9,0.3-1.3,0.5c-0.4,0.2-0.9,0.3-1.3,0.4c-0.4,0.1-0.7,0.2-1,0.3
		c-0.3,0.1-0.5,0.1-0.6,0.1h-0.2c-0.3,0-0.4-0.1-0.5-0.2c-0.1-0.2-0.2-0.3-0.2-0.4c-0.2-0.6-0.4-1.1-0.5-1.6
		c-0.2-0.5-0.4-0.9-0.5-1.4c-0.2-0.5-0.3-1-0.5-1.5c-0.2-0.5-0.3-1.2-0.5-1.9c0-0.1-0.1-0.2-0.3-0.2c-0.2-0.1-0.4-0.1-0.6-0.1
		c-0.2,0-0.5-0.1-0.7-0.1c-0.3,0-0.5,0-0.7,0c-0.7,0-1.2,0-1.7,0c-0.4,0-0.8,0-1.1,0c-0.3,0-0.6,0-0.9,0c-0.3,0-0.7,0-1.1,0
		c-0.5,0-1.1,0-1.6,0c-0.5,0-1,0-1.5,0l-1.5-0.1c-0.5,1.3-0.9,2.5-1.4,3.6c-0.5,1.1-1,2.3-1.5,3.5c0,0.1-0.1,0.3-0.3,0.3
		c-0.1,0.1-0.3,0.1-0.4,0.1c-0.1,0-0.2,0-0.2,0c-1.7-0.6-3.2-1.2-4.4-1.9S79.8,251.4,78.9,250.8z M97,226.7c-0.4,1.6-0.9,3-1.3,4.3
		c-0.4,1.3-0.8,2.4-1.2,3.5c-0.3,1-0.6,1.8-0.9,2.5c-0.3,0.7-0.4,1.2-0.5,1.6v0.2c0,0.1,0,0.2,0,0.2h6.4c-0.2-0.9-0.4-1.8-0.6-2.7
		c-0.2-0.9-0.4-1.8-0.7-2.8c-0.2-1-0.4-2-0.6-3.2S97.2,228,97,226.7z"/>
	<path d="M132.1,212l-1,9.3c-0.1,1.3-0.3,2.5-0.4,3.8c-0.1,1.3-0.3,2.5-0.4,3.7c-0.1,1.2-0.2,2.3-0.3,3.3c-0.1,1-0.2,1.8-0.3,2.5
		l1.9-2l3-3.5c0.4-0.4,0.7-0.9,1.1-1.3c0.4-0.4,0.7-0.8,1-1.1c0.3-0.3,0.5-0.6,0.7-0.8c0.2-0.2,0.3-0.4,0.3-0.4l10.8-0.8
		c0.1,0,0.1,0,0.2,0c0.1,0,0.1,0,0.2,0c0.3,0,0.5,0.1,0.5,0.2c0,0.1-0.2,0.4-0.6,0.8l-8.4,9.4c-0.4,0.4-0.8,0.9-1.3,1.4
		c-0.5,0.5-1.1,1.2-1.7,1.8l3.9,4.7l6.8,7.3c0.1,0.1,0.1,0.2,0.2,0.2c0.1,0,0.2,0.1,0.3,0.1c0.1,0,0.2,0.1,0.3,0.1
		c0.1,0,0.1,0.1,0.1,0.2c0,0.1,0,0.1,0,0.2c0,0-0.1,0.1-0.3,0.2c-0.2,0.1-0.4,0.3-0.8,0.5c-0.4,0.2-0.9,0.5-1.4,0.8
		s-1.1,0.6-1.7,0.9c-0.6,0.3-1.2,0.6-1.8,0.8c-0.6,0.2-1.1,0.4-1.6,0.6c-0.5,0.2-0.9,0.2-1.1,0.2c-0.2,0-0.4-0.1-0.6-0.2
		c-0.2-0.1-0.4-0.3-0.7-0.6c-0.3-0.4-0.8-0.9-1.3-1.5c-0.5-0.6-1.1-1.3-1.7-2.1c-0.6-0.8-1.2-1.5-1.8-2.4c-0.6-0.8-1.2-1.6-1.8-2.3
		c-0.6-0.7-1.1-1.4-1.5-2c-0.5-0.6-0.8-1.1-1.1-1.4c-0.1,0.1-0.2,0.2-0.3,0.2c-0.1,0-0.2,0.1-0.3,0.2c-0.1,0.1-0.1,0.2-0.2,0.3
		c-0.1,0.1-0.1,0.2-0.1,0.4c0,0.1,0,0.3-0.1,0.6c0,0.3-0.1,0.7-0.1,1.2c0,0.5-0.1,0.9-0.1,1.5c-0.1,0.5-0.1,1-0.1,1.5
		c0,0.5-0.1,0.9-0.1,1.2c0,0.3-0.1,0.5-0.1,0.6c0,0.1,0,0.2,0,0.3c0,0.1,0,0.2,0,0.2c0,0.2-0.1,0.3-0.2,0.4c-0.1,0.1-0.5,0.2-1,0.4
		l-7,2.3c-0.2,0.1-0.5,0.2-0.8,0.3s-0.6,0.2-0.9,0.2c-0.3,0-0.5-0.1-0.7-0.2c-0.2-0.1-0.3-0.4-0.3-0.7l3.4-38.7c0-0.1,0-0.2,0-0.3
		c0-0.1,0-0.2,0-0.3c0-0.2,0.1-0.3,0.2-0.4c0.1-0.1,0.4-0.3,0.9-0.4l7.5-1.8c0.2,0,0.5-0.1,0.8-0.2c0.3-0.1,0.6-0.2,0.9-0.2
		c0.2,0,0.5,0.1,0.7,0.2c0.2,0.1,0.3,0.3,0.3,0.6c0,0,0,0.1,0,0.1C132.1,211.9,132.1,212,132.1,212z"/>
	<path d="M177.3,247.4c0,0.1,0,0.1,0,0.2c0,0.1,0,0.1,0,0.2c0,0.4,0.1,0.8,0.2,1.1c0.1,0.3,0.3,0.5,0.5,0.7c0.2,0.2,0.3,0.3,0.5,0.5
		c0.1,0.1,0.2,0.2,0.2,0.3c0,0.3-0.3,0.5-0.8,0.7l-7.2,3.1c0,0-0.1,0-0.2,0c-0.1,0-0.3-0.1-0.4-0.4c-0.1-0.3-0.3-0.6-0.4-1
		c-0.1-0.4-0.3-0.8-0.4-1.2c-0.1-0.4-0.2-0.8-0.3-1.2c-1.1,1.3-2.3,2.3-3.7,2.9s-2.6,0.9-3.9,0.9c-1.5,0-3-0.3-4.4-1
		c-1.4-0.7-2.7-1.6-3.8-2.8c-1.1-1.2-2-2.7-2.7-4.4c-0.7-1.7-1-3.7-1-5.9c0-2.6,0.4-4.9,1.1-7c0.7-2.1,1.8-3.9,3-5.5
		c1.3-1.5,2.8-2.7,4.4-3.5c1.7-0.8,3.5-1.2,5.4-1.2c1.3,0,2.6,0.3,3.8,0.8c1.2,0.5,2.3,1.2,3.4,2.1c0.1-0.5,0.2-1,0.2-1.3
		s0.1-0.6,0.1-0.8c0.1-0.2,0.2-0.3,0.4-0.4c0.2-0.1,0.5-0.1,0.9-0.1c1.3-0.2,2.6-0.3,3.9-0.5c1.3-0.2,2.6-0.3,4-0.3L177.3,247.4z
		 M169.2,237.2c0.2-1,0.3-2,0.4-2.9c0.1-0.9,0.1-1.7,0.1-2.5c-0.3-0.2-0.6-0.4-0.9-0.7c-0.3-0.2-0.7-0.5-1.1-0.7
		c-0.4-0.2-0.8-0.4-1.2-0.5c-0.4-0.1-0.9-0.2-1.3-0.2c-1,0-1.8,0.3-2.4,0.9c-0.7,0.6-1.2,1.4-1.6,2.3s-0.7,1.9-0.9,2.9
		s-0.3,1.9-0.3,2.7c0,2.8,0.4,4.9,1.1,6.2c0.7,1.3,1.8,2,3.1,2c0.5,0,1.1-0.2,1.8-0.5c0.7-0.3,1.3-0.7,2-1.3L169.2,237.2z"/>
	<path d="M213.1,250c0,0,0,0.1,0,0.1c0,0,0,0.1,0,0.1c0,0.1,0,0.2,0,0.2s0,0.1,0,0.2c0,0.2-0.1,0.3-0.2,0.4
		c-0.1,0.1-0.4,0.2-0.9,0.3l-7.2,2.3c-0.2,0.1-0.5,0.2-0.8,0.3s-0.6,0.2-0.9,0.2c-0.3,0-0.5-0.1-0.7-0.2c-0.2-0.1-0.3-0.4-0.3-0.7
		c0-0.3,0-0.6,0-0.8c0-0.2,0-0.4,0-0.6c0-0.2,0-0.4,0.1-0.6c0-0.2,0.1-0.5,0.1-0.8c-1.3,1.1-2.7,1.9-4.1,2.6c-1.4,0.6-2.9,1-4.5,1
		c-1.7,0-3.2-0.4-4.6-1.2c-1.3-0.8-2.5-1.9-3.4-3.3c-0.9-1.4-1.6-2.9-2.1-4.7c-0.5-1.8-0.7-3.6-0.7-5.5c0-2.5,0.4-4.8,1.2-6.8
		c0.8-2.1,1.9-3.8,3.3-5.3c1.4-1.5,3-2.6,4.9-3.4c1.9-0.8,3.8-1.2,5.9-1.2c1.1,0,2.2,0.3,3.2,0.9c1,0.6,2,1.4,2.9,2.3
		c0.1-0.9,0.1-1.8,0.2-2.9c0.1-1,0.1-2.1,0.2-3.1c0.1-1.1,0.1-2.1,0.2-3.2c0.1-1,0.1-2,0.2-2.8c0-0.2,0.1-0.3,0.2-0.4
		c0.1-0.1,0.4-0.2,0.9-0.3l7.5-1.8c0.2,0,0.5-0.1,0.8-0.2c0.3-0.1,0.6-0.2,0.9-0.2c0.2,0,0.5,0.1,0.7,0.2c0.2,0.1,0.3,0.3,0.3,0.6
		c0,0,0,0.1,0,0.2c0,0.1,0,0.2,0,0.2L213.1,250z M203.7,237.5c0.1-0.6,0.1-1.2,0.2-1.8c0.1-0.6,0.1-1.3,0.2-2
		c-0.4-1.1-1-1.9-1.7-2.6c-0.8-0.7-1.7-1-2.8-1c-1.1,0-2,0.3-2.8,1c-0.8,0.6-1.4,1.4-1.9,2.4c-0.5,0.9-0.8,1.9-1,2.9
		c-0.2,1-0.3,1.9-0.3,2.7c0,1,0.1,1.9,0.2,2.9c0.1,0.9,0.3,1.8,0.6,2.6c0.3,0.8,0.6,1.4,1,1.9c0.4,0.5,1,0.7,1.6,0.7
		c1.6-0.1,2.9-0.4,3.8-1.1c1-0.7,1.8-1.5,2.4-2.4L203.7,237.5z"/>
	<path d="M235.1,222.8c1.7,0,3.2,0.3,4.6,1c1.4,0.6,2.6,1.5,3.6,2.5c1,1,1.8,2.1,2.3,3.4c0.5,1.3,0.8,2.5,0.8,3.8
		c0,1.1-0.3,2.2-1,3.3c-0.7,1.1-1.6,2.1-2.9,3c-1.2,0.9-2.7,1.6-4.4,2.2c-1.7,0.6-3.6,0.8-5.7,0.8c-1.1,0-2.2-0.1-3.4-0.3
		c0.1,0.8,0.3,1.4,0.7,2c0.4,0.6,0.9,1,1.4,1.4c0.6,0.4,1.2,0.6,1.9,0.8c0.7,0.2,1.5,0.3,2.2,0.3c0.9,0,1.7-0.1,2.5-0.2
		c0.8-0.2,1.6-0.4,2.3-0.6c0.7-0.3,1.4-0.5,2.1-0.8c0.7-0.3,1.3-0.6,1.9-0.9c0.2,0,0.3-0.1,0.4-0.1c0.1,0,0.2,0,0.3,0
		c0,0.6,0,1.1,0,1.6c0,0.5,0,1.1,0,1.9c0,0.7,0,1.5,0,2.4c0.1,0.1,0.1,0.2,0.1,0.3c0,0.1,0,0.2,0,0.2c0,0.2-0.2,0.4-0.6,0.7
		c-0.4,0.3-0.9,0.5-1.5,0.8c-0.6,0.3-1.4,0.5-2.2,0.8s-1.6,0.5-2.5,0.7c-0.8,0.2-1.7,0.4-2.4,0.5c-0.8,0.1-1.5,0.2-2.1,0.2
		c-1.9,0-3.8-0.3-5.6-1c-1.8-0.7-3.4-1.6-4.8-2.9c-1.4-1.3-2.5-2.8-3.4-4.6c-0.8-1.8-1.3-3.8-1.3-6c0-2.3,0.4-4.5,1.2-6.6
		c0.8-2.1,1.9-3.8,3.4-5.4c1.5-1.5,3.2-2.7,5.2-3.6C230.4,223.2,232.6,222.8,235.1,222.8z M234.7,229.9c-0.7,0-1.4,0.2-2,0.5
		c-0.6,0.3-1.2,0.8-1.7,1.3c-0.5,0.6-1,1.3-1.3,2.1c-0.4,0.8-0.7,1.7-0.9,2.7c1.8-0.3,3.4-0.7,4.6-1c1.2-0.4,2.2-0.7,2.9-1.1
		c0.7-0.4,1.3-0.7,1.6-1.1c0.3-0.4,0.5-0.7,0.5-1.1c0-0.3-0.1-0.6-0.4-0.9c-0.2-0.3-0.5-0.5-0.9-0.8s-0.7-0.4-1.2-0.5
		C235.5,230,235.1,229.9,234.7,229.9z"/>
	<path d="M288.8,253.7c-0.2,0.1-0.5,0.1-0.8,0.3c-0.3,0.1-0.6,0.2-0.9,0.2c-0.3,0-0.5-0.1-0.7-0.2c-0.2-0.1-0.3-0.3-0.3-0.6v-0.2
		c0.1-1.3,0.2-2.4,0.3-3.2c0.1-0.8,0.2-1.5,0.2-2c0.1-0.5,0.1-0.9,0.1-1.1c0-0.3,0.1-0.5,0.1-0.7c0-0.2,0.1-0.5,0.1-0.7
		c0-0.3,0.1-0.6,0.1-1.1c0.1-0.5,0.1-1.1,0.2-2c0.1-0.8,0.2-1.9,0.3-3.2c0.1-0.7,0.1-1.4,0.2-2.1c0.1-0.7,0.1-1.4,0.1-1.9
		c0-0.8,0-1.4-0.1-2.1c-0.1-0.6-0.2-1.1-0.4-1.6c-0.2-0.4-0.5-0.8-0.8-1c-0.4-0.3-0.8-0.4-1.4-0.4c-0.3,0-0.8,0.1-1.3,0.2
		c-0.5,0.1-1.1,0.4-1.7,0.8c-0.6,0.4-1.1,0.9-1.5,1.5c-0.4,0.6-0.7,1.4-0.9,2.3v0.1c-0.2,2-0.4,3.8-0.6,5.3
		c-0.2,1.5-0.3,2.8-0.4,3.9c-0.1,1.1-0.2,2-0.3,2.7c-0.1,0.7-0.1,1.3-0.2,1.8c-0.1,0.5-0.1,0.9-0.1,1.2c0,0.3,0,0.6,0,0.9
		c0,0.1,0,0.3,0,0.4c0,0.1,0,0.2,0,0.3c0,0.1-0.1,0.3-0.2,0.4c-0.1,0.1-0.4,0.2-0.9,0.4l-6.3,1.8c-0.2,0.1-0.5,0.1-0.8,0.3
		c-0.3,0.1-0.6,0.2-0.9,0.2c-0.3,0-0.5-0.1-0.7-0.2c-0.2-0.1-0.3-0.3-0.3-0.6v-0.2c0.1-1.3,0.2-2.4,0.3-3.2c0.1-0.8,0.2-1.5,0.2-2
		c0.1-0.5,0.1-0.9,0.1-1.1c0-0.3,0.1-0.5,0.1-0.7c0-0.2,0.1-0.5,0.1-0.7s0.1-0.6,0.1-1.1c0-0.5,0.1-1.1,0.2-2
		c0.1-0.8,0.2-1.9,0.3-3.2c0.1-0.7,0.1-1.4,0.2-2.1c0.1-0.7,0.1-1.4,0.1-1.9c0-0.8,0-1.4-0.1-2.1c-0.1-0.6-0.2-1.1-0.4-1.6
		c-0.2-0.4-0.4-0.8-0.8-1c-0.3-0.3-0.7-0.4-1.2-0.4c-0.4,0-0.8,0.1-1.5,0.3c-0.6,0.2-1.2,0.5-1.9,0.9c-0.6,0.4-1.2,1-1.6,1.6
		c-0.5,0.7-0.7,1.5-0.8,2.5c-0.1,1.3-0.3,2.4-0.3,3.3c-0.1,0.9-0.2,1.5-0.2,2.1c-0.1,0.5-0.1,1-0.1,1.3c0,0.3,0,0.6-0.1,0.9
		c0,0.1,0,0.3-0.1,0.6c0,0.3-0.1,0.7-0.1,1.2c0,0.5-0.1,0.9-0.1,1.5c0,0.5-0.1,1-0.1,1.5c0,0.5-0.1,0.9-0.1,1.2c0,0.3,0,0.5,0,0.6
		v0.5c0,0.2,0,0.3,0,0.5c0,0.1-0.1,0.2-0.2,0.3c-0.1,0.1-0.2,0.2-0.4,0.3c-0.2,0.1-0.4,0.2-0.7,0.3l-7,2.5c-0.2,0.1-0.5,0.2-0.8,0.3
		s-0.6,0.2-0.9,0.2c-0.3,0-0.5-0.1-0.7-0.2c-0.2-0.1-0.3-0.3-0.3-0.6l2.4-27.4c0.1-0.6,0.1-1,0.2-1.2c0.1-0.2,0.3-0.4,0.6-0.4
		c1.6-0.3,3.3-0.6,5-1c1.7-0.3,3.4-0.8,5-1.3c0.1,0,0.2,0,0.3,0.1c0,0,0,0.1,0,0.2l-0.3,3.9c0.7-0.3,1.4-0.7,2.2-1.1
		c0.8-0.4,1.7-0.8,2.6-1.1c0.9-0.3,1.8-0.6,2.8-0.8c0.9-0.2,1.9-0.3,2.8-0.3c1.2,0,2.4,0.3,3.4,0.8c1,0.6,1.9,1.5,2.6,2.8
		c0.8-0.5,1.7-1,2.6-1.5c0.9-0.4,1.8-0.8,2.8-1.2c0.9-0.3,1.9-0.6,2.8-0.8c0.9-0.2,1.9-0.3,2.8-0.3c1.1,0,2.2,0.2,3.2,0.5
		s1.9,0.9,2.6,1.6c0.7,0.7,1.3,1.7,1.8,2.9c0.4,1.2,0.6,2.6,0.6,4.3c0,0.4,0,0.9,0,1.3c0,0.5-0.1,0.9-0.1,1.4l-1.2,11.5
		c-0.1,0.8-0.1,1.4-0.2,2.1c0,0.6,0,1.4,0,2.2c0,0.1,0,0.3,0,0.4c0,0.1,0,0.2,0,0.3c0,0.2-0.1,0.3-0.2,0.4c-0.1,0.1-0.4,0.2-0.9,0.3
		L288.8,253.7z"/>
	<path d="M313,265c0,0.1-0.1,0.1-0.1,0.2c0,0-0.1,0.1-0.2,0.1s-0.2,0-0.2,0c-0.6-0.2-1.3-0.4-1.8-0.6s-1.1-0.3-1.7-0.4
		c-0.6-0.1-1.1-0.3-1.7-0.4c-0.6-0.1-1.2-0.2-1.9-0.4c-0.2,0-0.3-0.1-0.4-0.2c-0.1-0.1-0.1-0.2-0.1-0.4c0-0.1,0-0.2,0.1-0.4
		c0.1-0.2,0.2-0.6,0.5-1.3c0.3-0.6,0.6-1.6,1.2-2.8c0.5-1.2,1.2-2.8,2.1-4.9c-0.3-0.9-0.6-2-0.9-3.2c-0.3-1.3-0.7-2.6-1.1-4.1
		c-0.4-1.5-0.8-3.1-1.2-4.7c-0.4-1.7-0.8-3.3-1.2-5c-0.4-1.7-0.8-3.4-1.3-5c-0.4-1.7-0.8-3.2-1.2-4.7c-0.1-0.3-0.2-0.5-0.2-0.7
		c0-0.2,0-0.3,0-0.5c0-0.3,0.1-0.4,0.4-0.5c1.4-0.3,2.8-0.6,4.4-1c1.5-0.3,2.9-0.8,4.3-1.3c0.1,0,0.1,0,0.2,0c0.2,0,0.4,0.1,0.4,0.3
		l3.3,18c0.1-0.2,0.2-0.6,0.4-1.2c0.2-0.6,0.4-1.2,0.7-2c0.3-0.8,0.6-1.7,0.9-2.6c0.3-0.9,0.7-1.9,1-2.9c0.4-1,0.7-2,1.1-2.9
		c0.3-1,0.7-1.9,1-2.7c0.3-0.8,0.6-1.6,0.8-2.2s0.4-1.1,0.5-1.5c0.1-0.2,0.2-0.3,0.4-0.3c0.1,0,0.1,0,0.1,0c0,0,0.1,0,0.1,0
		c1.3,0.5,2.7,0.9,4.1,1.3c1.4,0.3,2.8,0.6,4.2,1c0.3,0.1,0.5,0.3,0.5,0.6c0,0.2-0.1,0.6-0.3,1.1l-11.1,25L313,265z"/>
</g>
</svg>
